<svg width="24" height="24" xmlns="http://www.w3.org/2000/svg" xmlns:svg="http://www.w3.org/2000/svg" version="1.1">
 <title id="title4599">Warning sign</title>
 <metadata id="metadata2">Warning signcautionsecuritywarningsigns_and_symbolssignThomas WellerThomas WellerThomas Wellerimage/svg+xmlen</metadata>
 <g class="layer">
  <title>Layer 1</title>
  <g id="g4593" transform="matrix(0.164738 0 0 0.164738 35.0445 5.81383)">
   <path d="m-139.56,-25.64c-0.13,0 -0.27,0.01 -0.4,0.04c-3.2,0.03 -6.18,1.7 -7.79,4.49l-31.25,54.12l-31.25,54.13l0,0c-3.42,5.92 1.02,13.61 7.86,13.61l62.5,0l62.5,0c6.84,0 11.28,-7.69 7.86,-13.61l-31.25,-54.13l-31.25,-54.12c-1.47,-2.54 -4.08,-4.17 -6.98,-4.45c-0.15,-0.05 -0.3,-0.07 -0.45,-0.08l0,0c-0.03,0 -0.06,0 -0.09,0l-0.01,0z" fill="#000000" id="path4595"/>
   <path d="m-139.56,-23.64c-2.64,-0.13 -5.13,1.24 -6.45,3.53l-31.25,54.12l-31.25,54.13c-2.68,4.63 0.77,10.61 6.12,10.61l62.5,0l62.5,0c5.35,0 8.8,-5.98 6.13,-10.61l-31.25,-54.13l-31.25,-54.12c-1.21,-2.09 -3.39,-3.42 -5.79,-3.53l-0.01,0z" fill="#ffffff" id="path4583"/>
   <path d="m-139.65,-21.65c-1.9,-0.09 -3.68,0.89 -4.63,2.54l-31.25,54.12l-31.25,54.13c-1.95,3.38 0.49,7.61 4.39,7.61l62.5,0l62.5,0c3.91,0 6.35,-4.23 4.4,-7.61l-31.25,-54.13l-31.26,-54.12c-0.86,-1.5 -2.42,-2.45 -4.15,-2.54z" fill="#000000" id="path4577"/>
   <path d="m-77.39,91.68l-62.5,0l-62.5,0l31.25,-54.13l31.25,-54.13l31.25,54.13l31.25,54.13z" fill="#ffcc00" id="path4573"/>
   <g id="g858" transform="translate(-188.062 0)">
    <circle cx="48.17" cy="78.25" fill="#000000" id="path846" r="8.82"/>
    <path d="m48.17,10.09c-4.87,-0.01 -8.81,3.94 -8.81,8.81c3.15,37.46 0,0 3.15,37.46c0,3.13 2.54,5.66 5.66,5.66c3.13,0 5.67,-2.53 5.67,-5.66c3.15,-37.46 0,0 3.15,-37.46c0,-4.87 -3.95,-8.81 -8.82,-8.81z" fill="#000000" id="circle848"/>
   </g>
  </g>
 </g>
</svg>